<svg width="72" height="72" viewBox="0 0 72 72" fill="none" xmlns="http://www.w3.org/2000/svg">
<rect width="72" height="72" rx="12" fill="white"/>
<path d="M16.0425 51V50.6L18.0425 50V33.04H16.0425V32.6L27.4425 31V36.92L27.7625 37.24C28.2158 35.96 28.7625 34.8 29.4025 33.76C30.0425 32.72 30.8158 31.9067 31.7225 31.32C32.6558 30.7067 33.7892 30.4 35.1225 30.4C36.1625 30.4 37.0692 30.5467 37.8425 30.84C38.6158 31.1333 39.2425 31.56 39.7225 32.12C40.2292 32.68 40.6025 33.3733 40.8425 34.2C41.1092 35 41.2425 35.9067 41.2425 36.92V50L42.8425 50.6V51H30.2425V50.6L31.8425 50V36C31.8425 35.1733 31.7225 34.5333 31.4825 34.08C31.2425 33.6267 30.9625 33.4 30.6425 33.4C30.2692 33.4 29.8958 33.6667 29.5225 34.2C29.1758 34.7333 28.8558 35.3733 28.5625 36.12C28.2692 36.84 28.0158 37.52 27.8025 38.16C27.6158 38.7733 27.4958 39.1867 27.4425 39.4V50L29.0425 50.6V51H16.0425ZM44.0425 51V50.6L45.6425 50V36C45.6425 35.1733 45.5225 34.5333 45.2825 34.08C45.0425 33.6267 44.7625 33.4 44.4425 33.4C44.0692 33.4 43.6958 33.6667 43.3225 34.2C42.9758 34.7333 42.6558 35.3733 42.3625 36.12C42.0692 36.84 41.8158 37.52 41.6025 38.16C41.4158 38.7733 41.2958 39.1867 41.2425 39.4V36.92L41.5625 37.24C42.0158 35.96 42.5625 34.8 43.2025 33.76C43.8425 32.72 44.6158 31.9067 45.5225 31.32C46.4558 30.7067 47.5892 30.4 48.9225 30.4C50.1492 30.4 51.1625 30.5867 51.9625 30.96C52.7625 31.3333 53.3758 31.8533 53.8025 32.52C54.2558 33.16 54.5758 33.9067 54.7625 34.76C54.9492 35.5867 55.0425 36.4667 55.0425 37.4V50L57.0425 50.6V51H44.0425Z" fill="#BE17FA"/>
</svg>
